<svg viewBox="0 0 1200 600" xmlns="http://www.w3.org/2000/svg">
  <!-- 背景渐变 -->
  <defs>
    <linearGradient id="bg-gradient" x1="0%" y1="0%" x2="100%" y2="100%">
      <stop offset="0%" stop-color="#0a192f" />
      <stop offset="100%" stop-color="#112240" />
    </linearGradient>
    
    <!-- 分子结构线条 -->
    <filter id="glow" x="-20%" y="-20%" width="140%" height="140%">
      <feGaussianBlur stdDeviation="4" result="blur" />
      <feComposite in="SourceGraphic" in2="blur" operator="over" />
    </filter>
    
    <!-- 粒子动画 -->
    <radialGradient id="particle-gradient" cx="50%" cy="50%" r="50%" fx="50%" fy="50%">
      <stop offset="0%" stop-color="rgba(100, 255, 218, 0.8)" />
      <stop offset="100%" stop-color="rgba(100, 255, 218, 0)" />
    </radialGradient>
  </defs>

  <!-- 主背景 -->
  <rect width="100%" height="100%" fill="url(#bg-gradient)" />
  
  <!-- 抽象RNA分子结构网络 -->
  <g stroke="#64ffda" stroke-width="1.5" opacity="0.6" filter="url(#glow)">
    <!-- 水平结构线 -->
    <path d="M100,150 Q300,50 500,150 T900,150" fill="none" />
    <path d="M100,250 Q300,350 500,250 T900,250" fill="none" />
    <path d="M100,350 Q300,250 500,350 T900,350" fill="none" />
    <path d="M100,450 Q300,550 500,450 T900,450" fill="none" />
    
    <!-- 连接线 -->
    <line x1="200" y1="150" x2="200" y2="250" opacity="0.4" />
    <line x1="400" y1="150" x2="400" y2="350" opacity="0.4" />
    <line x1="600" y1="250" x2="600" y2="450" opacity="0.4" />
    <line x1="800" y1="150" x2="800" y2="350" opacity="0.4" />
    
    <!-- 节点 -->
    <circle cx="200" cy="150" r="8" fill="#64ffda" opacity="0.8" />
    <circle cx="400" cy="150" r="6" fill="#64ffda" opacity="0.8" />
    <circle cx="600" cy="250" r="10" fill="#64ffda" opacity="0.8" />
    <circle cx="800" cy="150" r="7" fill="#64ffda" opacity="0.8" />
    <circle cx="200" cy="250" r="5" fill="#64ffda" opacity="0.8" />
    <circle cx="400" cy="350" r="9" fill="#64ffda" opacity="0.8" />
    <circle cx="600" cy="450" r="6" fill="#64ffda" opacity="0.8" />
    <circle cx="800" cy="350" r="8" fill="#64ffda" opacity="0.8" />
  </g>

  <!-- 右侧数据可视化元素 -->
  <g transform="translate(950, 300)">
    <circle cx="0" cy="0" r="120" fill="none" stroke="#64ffda" stroke-width="1" opacity="0.2" />
    <circle cx="0" cy="0" r="90" fill="none" stroke="#64ffda" stroke-width="1" opacity="0.3" />
    <circle cx="0" cy="0" r="60" fill="none" stroke="#64ffda" stroke-width="1" opacity="0.4" />
    <circle cx="0" cy="0" r="30" fill="none" stroke="#64ffda" stroke-width="1" opacity="0.5" />
    
    <!-- 装饰线 -->
    <line x1="-120" y1="0" x2="120" y2="0" stroke="#64ffda" stroke-width="0.5" opacity="0.3" />
    <line x1="0" y1="-120" x2="0" y2="120" stroke="#64ffda" stroke-width="0.5" opacity="0.3" />
    <line x1="-85" y1="-85" x2="85" y2="85" stroke="#64ffda" stroke-width="0.5" opacity="0.3" />
    <line x1="85" y1="-85" x2="-85" y2="85" stroke="#64ffda" stroke-width="0.5" opacity="0.3" />
  </g>

  <!-- 左上角装饰性元素 -->
  <g transform="translate(120, 120)">
    <rect x="-40" y="-40" width="80" height="80" fill="none" stroke="#64ffda" stroke-width="2" opacity="0.6" />
    <rect x="-30" y="-30" width="60" height="60" fill="none" stroke="#64ffda" stroke-width="1.5" opacity="0.4" />
    <rect x="-20" y="-20" width="40" height="40" fill="none" stroke="#64ffda" stroke-width="1" opacity="0.2" />
  </g>
  
  <!-- 底部波浪效果 -->
  <path d="M0,550 Q300,500 600,550 T1200,550 L1200,600 L0,600 Z" fill="#64ffda" opacity="0.1" />
  
  <!-- 点状粒子效果 -->
  <g opacity="0.6">
    <circle cx="200" cy="200" r="3" fill="#64ffda" />
    <circle cx="340" cy="280" r="2" fill="#64ffda" />
    <circle cx="480" cy="120" r="4" fill="#64ffda" />
    <circle cx="620" cy="300" r="3" fill="#64ffda" />
    <circle cx="760" cy="220" r="2" fill="#64ffda" />
    <circle cx="900" cy="180" r="3" fill="#64ffda" />
    <circle cx="1040" cy="400" r="4" fill="#64ffda" />
    <circle cx="300" cy="450" r="2" fill="#64ffda" />
    <circle cx="450" cy="380" r="3" fill="#64ffda" />
    <circle cx="700" cy="420" r="2" fill="#64ffda" />
    <circle cx="850" cy="320" r="4" fill="#64ffda" />
    <circle cx="1000" cy="280" r="2" fill="#64ffda" />
  </g>
</svg>